<mxfile host="Electron" agent="Mozilla/5.0 (Macintosh; Intel Mac OS X 10_15_7) AppleWebKit/537.36 (KHTML, like Gecko) draw.io/26.2.15 Chrome/134.0.6998.205 Electron/35.2.1 Safari/537.36" version="26.2.15">
  <diagram name="Page-1" id="PO6AWBiZqA4K_4CGN0Es">
    <mxGraphModel dx="407" dy="222" grid="1" gridSize="10" guides="1" tooltips="1" connect="1" arrows="1" fold="1" page="1" pageScale="1" pageWidth="1200" pageHeight="1600" math="1" shadow="0">
      <root>
        <mxCell id="0" />
        <mxCell id="-joh_1QA3JhNHQXmWk5C-199" value="area" style="locked=1;" parent="0" />
        <mxCell id="FAgdxb8KmqYoFSVoBM0i-1" value="" style="rounded=1;whiteSpace=wrap;html=1;dashed=1;" parent="-joh_1QA3JhNHQXmWk5C-199" vertex="1">
          <mxGeometry x="470" y="237" width="300" height="150" as="geometry" />
        </mxCell>
        <object label="DNN Boxes" id="ntlW8NFhvoEF-g6CEwiz-96">
          <mxCell style="locked=1;" parent="0" />
        </object>
        <mxCell id="-joh_1QA3JhNHQXmWk5C-141" value="" style="rounded=1;whiteSpace=wrap;html=1;strokeColor=none;fillColor=#dae8fc;" parent="ntlW8NFhvoEF-g6CEwiz-96" vertex="1">
          <mxGeometry x="496" y="281" width="20" height="62" as="geometry" />
        </mxCell>
        <mxCell id="-joh_1QA3JhNHQXmWk5C-143" value="" style="rounded=1;whiteSpace=wrap;html=1;strokeColor=none;fillColor=#f8cecc;" parent="ntlW8NFhvoEF-g6CEwiz-96" vertex="1">
          <mxGeometry x="555" y="264" width="20" height="94" as="geometry" />
        </mxCell>
        <mxCell id="-joh_1QA3JhNHQXmWk5C-145" value="" style="rounded=1;whiteSpace=wrap;html=1;strokeColor=none;fillColor=#f8cecc;" parent="ntlW8NFhvoEF-g6CEwiz-96" vertex="1">
          <mxGeometry x="624" y="264" width="20" height="94" as="geometry" />
        </mxCell>
        <mxCell id="-joh_1QA3JhNHQXmWk5C-146" value="" style="rounded=1;whiteSpace=wrap;html=1;strokeColor=none;fillColor=#dae8fc;" parent="ntlW8NFhvoEF-g6CEwiz-96" vertex="1">
          <mxGeometry x="684" y="281" width="20" height="62" as="geometry" />
        </mxCell>
        <mxCell id="-joh_1QA3JhNHQXmWk5C-209" value="Global signal" style="locked=1;" parent="0" />
        <mxCell id="-joh_1QA3JhNHQXmWk5C-210" value="" style="endArrow=classic;html=1;rounded=0;entryX=0;entryY=0.5;entryDx=0;entryDy=0;" parent="-joh_1QA3JhNHQXmWk5C-209" target="-joh_1QA3JhNHQXmWk5C-70" edge="1">
          <mxGeometry width="50" height="50" relative="1" as="geometry">
            <mxPoint x="460" y="301" as="sourcePoint" />
            <mxPoint x="450" y="370" as="targetPoint" />
          </mxGeometry>
        </mxCell>
        <mxCell id="-joh_1QA3JhNHQXmWk5C-212" value="" style="endArrow=classic;html=1;rounded=0;entryX=0;entryY=0.5;entryDx=0;entryDy=0;" parent="-joh_1QA3JhNHQXmWk5C-209" target="-joh_1QA3JhNHQXmWk5C-69" edge="1">
          <mxGeometry width="50" height="50" relative="1" as="geometry">
            <mxPoint x="460" y="320" as="sourcePoint" />
            <mxPoint x="511" y="311" as="targetPoint" />
          </mxGeometry>
        </mxCell>
        <mxCell id="-joh_1QA3JhNHQXmWk5C-213" value="" style="endArrow=classic;html=1;rounded=0;exitX=1;exitY=0.5;exitDx=0;exitDy=0;" parent="-joh_1QA3JhNHQXmWk5C-209" source="-joh_1QA3JhNHQXmWk5C-65" edge="1">
          <mxGeometry width="50" height="50" relative="1" as="geometry">
            <mxPoint x="900" y="330" as="sourcePoint" />
            <mxPoint x="750" y="300" as="targetPoint" />
          </mxGeometry>
        </mxCell>
        <mxCell id="-joh_1QA3JhNHQXmWk5C-214" value="" style="endArrow=classic;html=1;rounded=0;exitX=0.76;exitY=0.45;exitDx=0;exitDy=0;exitPerimeter=0;" parent="-joh_1QA3JhNHQXmWk5C-209" source="-joh_1QA3JhNHQXmWk5C-64" edge="1">
          <mxGeometry width="50" height="50" relative="1" as="geometry">
            <mxPoint x="460" y="330" as="sourcePoint" />
            <mxPoint x="750" y="320" as="targetPoint" />
          </mxGeometry>
        </mxCell>
        <object label="Small Area" id="ntlW8NFhvoEF-g6CEwiz-32">
          <mxCell style="locked=1;" parent="0" />
        </object>
        <mxCell id="-joh_1QA3JhNHQXmWk5C-157" value="" style="rounded=1;whiteSpace=wrap;html=1;shadow=0;fillColor=none;strokeColor=#82b366;strokeWidth=1;arcSize=0;dashed=1;" parent="ntlW8NFhvoEF-g6CEwiz-32" vertex="1">
          <mxGeometry x="589" y="330" width="61" height="35" as="geometry" />
        </mxCell>
        <mxCell id="-joh_1QA3JhNHQXmWk5C-159" value="" style="rounded=1;whiteSpace=wrap;html=1;arcSize=0;dashed=1;fillColor=#d5e8d4;strokeColor=#82b366;" parent="ntlW8NFhvoEF-g6CEwiz-32" vertex="1">
          <mxGeometry x="722" y="330" width="120" height="70" as="geometry" />
        </mxCell>
        <mxCell id="-joh_1QA3JhNHQXmWk5C-161" value="" style="endArrow=none;html=1;rounded=0;exitX=0;exitY=0;exitDx=0;exitDy=0;entryX=0;entryY=0;entryDx=0;entryDy=0;dashed=1;fillColor=#d5e8d4;strokeColor=#82b366;" parent="ntlW8NFhvoEF-g6CEwiz-32" source="-joh_1QA3JhNHQXmWk5C-157" target="-joh_1QA3JhNHQXmWk5C-159" edge="1">
          <mxGeometry width="50" height="50" relative="1" as="geometry">
            <mxPoint x="690" y="310" as="sourcePoint" />
            <mxPoint x="740" y="260" as="targetPoint" />
          </mxGeometry>
        </mxCell>
        <mxCell id="-joh_1QA3JhNHQXmWk5C-162" value="" style="endArrow=none;html=1;rounded=0;exitX=1;exitY=1;exitDx=0;exitDy=0;entryX=0;entryY=1;entryDx=0;entryDy=0;dashed=1;fillColor=#d5e8d4;strokeColor=#82b366;" parent="ntlW8NFhvoEF-g6CEwiz-32" source="-joh_1QA3JhNHQXmWk5C-157" target="-joh_1QA3JhNHQXmWk5C-159" edge="1">
          <mxGeometry width="50" height="50" relative="1" as="geometry">
            <mxPoint x="660" y="340" as="sourcePoint" />
            <mxPoint x="750" y="245" as="targetPoint" />
          </mxGeometry>
        </mxCell>
        <object label="Small Boxes" id="-joh_1QA3JhNHQXmWk5C-169">
          <mxCell style="locked=1;" parent="0" />
        </object>
        <mxCell id="-joh_1QA3JhNHQXmWk5C-170" value="" style="whiteSpace=wrap;html=1;fillColor=#f5f5f5;fontColor=#333333;strokeColor=#666666;" parent="-joh_1QA3JhNHQXmWk5C-169" vertex="1">
          <mxGeometry x="767" y="350" width="20" height="20" as="geometry" />
        </mxCell>
        <mxCell id="-joh_1QA3JhNHQXmWk5C-193" value="" style="whiteSpace=wrap;html=1;fillColor=#f5f5f5;fontColor=#333333;strokeColor=#666666;" parent="-joh_1QA3JhNHQXmWk5C-169" vertex="1">
          <mxGeometry x="797" y="350" width="20" height="20" as="geometry" />
        </mxCell>
        <object label="Small signal" id="-joh_1QA3JhNHQXmWk5C-177">
          <mxCell style="locked=1;" parent="0" />
        </object>
        <mxCell id="-joh_1QA3JhNHQXmWk5C-181" value="" style="endArrow=classic;html=1;rounded=0;exitX=1;exitY=0.5;exitDx=0;exitDy=0;entryX=0;entryY=0.5;entryDx=0;entryDy=0;strokeWidth=1;endSize=2;" parent="-joh_1QA3JhNHQXmWk5C-177" source="-joh_1QA3JhNHQXmWk5C-175" target="-joh_1QA3JhNHQXmWk5C-170" edge="1">
          <mxGeometry width="50" height="50" relative="1" as="geometry">
            <mxPoint x="737" y="375" as="sourcePoint" />
            <mxPoint x="787" y="325" as="targetPoint" />
          </mxGeometry>
        </mxCell>
        <mxCell id="-joh_1QA3JhNHQXmWk5C-182" value="" style="endArrow=classic;html=1;rounded=0;exitX=0.5;exitY=0;exitDx=0;exitDy=0;entryX=0;entryY=0.5;entryDx=0;entryDy=0;strokeWidth=1;endSize=2;" parent="-joh_1QA3JhNHQXmWk5C-177" source="-joh_1QA3JhNHQXmWk5C-176" target="-joh_1QA3JhNHQXmWk5C-170" edge="1">
          <mxGeometry width="50" height="50" relative="1" as="geometry">
            <mxPoint x="748" y="391" as="sourcePoint" />
            <mxPoint x="766" y="371" as="targetPoint" />
          </mxGeometry>
        </mxCell>
        <mxCell id="-joh_1QA3JhNHQXmWk5C-183" value="" style="endArrow=classic;html=1;rounded=0;exitX=1;exitY=0.5;exitDx=0;exitDy=0;entryX=0;entryY=0.5;entryDx=0;entryDy=0;strokeWidth=1;endSize=2;" parent="-joh_1QA3JhNHQXmWk5C-177" source="-joh_1QA3JhNHQXmWk5C-174" target="-joh_1QA3JhNHQXmWk5C-170" edge="1">
          <mxGeometry width="50" height="50" relative="1" as="geometry">
            <mxPoint x="757" y="395" as="sourcePoint" />
            <mxPoint x="766" y="371" as="targetPoint" />
          </mxGeometry>
        </mxCell>
        <mxCell id="-joh_1QA3JhNHQXmWk5C-184" value="" style="endArrow=classic;html=1;rounded=0;exitX=1;exitY=0.5;exitDx=0;exitDy=0;entryX=0;entryY=0.5;entryDx=0;entryDy=0;strokeWidth=1;endSize=2;" parent="-joh_1QA3JhNHQXmWk5C-177" source="-joh_1QA3JhNHQXmWk5C-173" target="-joh_1QA3JhNHQXmWk5C-170" edge="1">
          <mxGeometry width="50" height="50" relative="1" as="geometry">
            <mxPoint x="748" y="370" as="sourcePoint" />
            <mxPoint x="766" y="371" as="targetPoint" />
          </mxGeometry>
        </mxCell>
        <mxCell id="-joh_1QA3JhNHQXmWk5C-192" value="" style="endArrow=classic;html=1;rounded=0;exitX=1;exitY=0.5;exitDx=0;exitDy=0;strokeWidth=1;endSize=2;" parent="-joh_1QA3JhNHQXmWk5C-177" source="-joh_1QA3JhNHQXmWk5C-170" edge="1">
          <mxGeometry width="50" height="50" relative="1" as="geometry">
            <mxPoint x="748" y="351" as="sourcePoint" />
            <mxPoint x="797" y="360" as="targetPoint" />
          </mxGeometry>
        </mxCell>
        <mxCell id="-joh_1QA3JhNHQXmWk5C-196" value="" style="endArrow=classic;html=1;rounded=0;strokeWidth=1;endSize=2;exitX=1;exitY=0.5;exitDx=0;exitDy=0;entryX=0;entryY=0.5;entryDx=0;entryDy=0;" parent="-joh_1QA3JhNHQXmWk5C-177" source="-joh_1QA3JhNHQXmWk5C-193" target="-joh_1QA3JhNHQXmWk5C-195" edge="1">
          <mxGeometry width="50" height="50" relative="1" as="geometry">
            <mxPoint x="787" y="295" as="sourcePoint" />
            <mxPoint x="837" y="305" as="targetPoint" />
          </mxGeometry>
        </mxCell>
        <object label="Small Greec" id="-joh_1QA3JhNHQXmWk5C-171">
          <mxCell style="locked=1;" parent="0" />
        </object>
        <mxCell id="-joh_1QA3JhNHQXmWk5C-172" value="$$\sum$$" style="text;html=1;align=center;verticalAlign=middle;resizable=0;points=[];autosize=1;strokeColor=none;fillColor=none;fontSize=8;" parent="-joh_1QA3JhNHQXmWk5C-171" vertex="1">
          <mxGeometry x="746" y="350" width="60" height="20" as="geometry" />
        </mxCell>
        <mxCell id="-joh_1QA3JhNHQXmWk5C-186" value="$$w_{13}$$" style="text;html=1;align=center;verticalAlign=middle;resizable=0;points=[];autosize=1;strokeColor=none;fillColor=none;fontSize=8;" parent="-joh_1QA3JhNHQXmWk5C-171" vertex="1">
          <mxGeometry x="720" y="331" width="70" height="20" as="geometry" />
        </mxCell>
        <mxCell id="-joh_1QA3JhNHQXmWk5C-187" value="$$w_{23}$$" style="text;html=1;align=center;verticalAlign=middle;resizable=0;points=[];autosize=1;strokeColor=none;fillColor=none;fontSize=8;" parent="-joh_1QA3JhNHQXmWk5C-171" vertex="1">
          <mxGeometry x="711" y="341" width="70" height="20" as="geometry" />
        </mxCell>
        <mxCell id="-joh_1QA3JhNHQXmWk5C-188" value="$$w_{33}$$" style="text;html=1;align=center;verticalAlign=middle;resizable=0;points=[];autosize=1;strokeColor=none;fillColor=none;fontSize=8;" parent="-joh_1QA3JhNHQXmWk5C-171" vertex="1">
          <mxGeometry x="712" y="352" width="70" height="20" as="geometry" />
        </mxCell>
        <mxCell id="-joh_1QA3JhNHQXmWk5C-189" value="$$w_{43}$$" style="text;html=1;align=center;verticalAlign=middle;resizable=0;points=[];autosize=1;strokeColor=none;fillColor=none;fontSize=8;" parent="-joh_1QA3JhNHQXmWk5C-171" vertex="1">
          <mxGeometry x="726" y="370" width="70" height="20" as="geometry" />
        </mxCell>
        <mxCell id="-joh_1QA3JhNHQXmWk5C-194" value="$$\sigma(\cdot)$$" style="text;html=1;align=center;verticalAlign=middle;resizable=0;points=[];autosize=1;strokeColor=none;fillColor=none;fontSize=8;" parent="-joh_1QA3JhNHQXmWk5C-171" vertex="1">
          <mxGeometry x="762" y="348" width="90" height="20" as="geometry" />
        </mxCell>
        <object label="Small weight" id="-joh_1QA3JhNHQXmWk5C-168">
          <mxCell style="" parent="0" />
        </object>
        <mxCell id="-joh_1QA3JhNHQXmWk5C-173" value="" style="ellipse;whiteSpace=wrap;html=1;aspect=fixed;fillColor=#FF8D8D;" parent="-joh_1QA3JhNHQXmWk5C-168" vertex="1">
          <mxGeometry x="727" y="334.99999999999994" width="11" height="11" as="geometry" />
        </mxCell>
        <mxCell id="-joh_1QA3JhNHQXmWk5C-174" value="" style="ellipse;whiteSpace=wrap;html=1;aspect=fixed;fillColor=#FF8D8D;" parent="-joh_1QA3JhNHQXmWk5C-168" vertex="1">
          <mxGeometry x="727" y="354.99999999999994" width="11" height="11" as="geometry" />
        </mxCell>
        <mxCell id="-joh_1QA3JhNHQXmWk5C-175" value="" style="ellipse;whiteSpace=wrap;html=1;aspect=fixed;fillColor=#FF8D8D;" parent="-joh_1QA3JhNHQXmWk5C-168" vertex="1">
          <mxGeometry x="727" y="374.99999999999994" width="11" height="11" as="geometry" />
        </mxCell>
        <mxCell id="-joh_1QA3JhNHQXmWk5C-176" value="&lt;span style=&quot;font-size: 9px;&quot;&gt;$$1$$&lt;/span&gt;" style="ellipse;whiteSpace=wrap;html=1;aspect=fixed;fillColor=#FF8000;" parent="-joh_1QA3JhNHQXmWk5C-168" vertex="1">
          <mxGeometry x="741" y="384.99999999999994" width="11" height="11" as="geometry" />
        </mxCell>
        <mxCell id="-joh_1QA3JhNHQXmWk5C-195" value="" style="ellipse;whiteSpace=wrap;html=1;aspect=fixed;fillColor=#FF8D8D;" parent="-joh_1QA3JhNHQXmWk5C-168" vertex="1">
          <mxGeometry x="827" y="354.99999999999994" width="11" height="11" as="geometry" />
        </mxCell>
        <object label="DNN signal" id="PvffXtldvGFclzvf1Mkj-34">
          <mxCell style="locked=1;" parent="0" />
        </object>
        <mxCell id="-joh_1QA3JhNHQXmWk5C-73" value="" style="endArrow=classic;html=1;rounded=0;exitX=1;exitY=0.5;exitDx=0;exitDy=0;entryX=0;entryY=0.5;entryDx=0;entryDy=0;strokeWidth=1;endSize=1;" parent="PvffXtldvGFclzvf1Mkj-34" source="-joh_1QA3JhNHQXmWk5C-70" target="-joh_1QA3JhNHQXmWk5C-68" edge="1">
          <mxGeometry width="50" height="50" relative="1" as="geometry">
            <mxPoint x="580" y="330" as="sourcePoint" />
            <mxPoint x="630" y="280" as="targetPoint" />
          </mxGeometry>
        </mxCell>
        <mxCell id="-joh_1QA3JhNHQXmWk5C-95" value="" style="endArrow=classic;html=1;rounded=0;exitX=1;exitY=0.5;exitDx=0;exitDy=0;entryX=0;entryY=0.5;entryDx=0;entryDy=0;strokeWidth=1;endSize=1;" parent="PvffXtldvGFclzvf1Mkj-34" source="-joh_1QA3JhNHQXmWk5C-69" target="-joh_1QA3JhNHQXmWk5C-68" edge="1">
          <mxGeometry width="50" height="50" relative="1" as="geometry">
            <mxPoint x="540" y="320" as="sourcePoint" />
            <mxPoint x="570" y="350" as="targetPoint" />
          </mxGeometry>
        </mxCell>
        <mxCell id="-joh_1QA3JhNHQXmWk5C-96" value="" style="endArrow=classic;html=1;rounded=0;exitX=1;exitY=0.5;exitDx=0;exitDy=0;entryX=0;entryY=0.5;entryDx=0;entryDy=0;strokeWidth=1;endSize=1;" parent="PvffXtldvGFclzvf1Mkj-34" source="-joh_1QA3JhNHQXmWk5C-69" target="-joh_1QA3JhNHQXmWk5C-66" edge="1">
          <mxGeometry width="50" height="50" relative="1" as="geometry">
            <mxPoint x="550" y="330" as="sourcePoint" />
            <mxPoint x="580" y="360" as="targetPoint" />
          </mxGeometry>
        </mxCell>
        <mxCell id="-joh_1QA3JhNHQXmWk5C-97" value="" style="endArrow=classic;html=1;rounded=0;exitX=1;exitY=0.5;exitDx=0;exitDy=0;entryX=0;entryY=0.5;entryDx=0;entryDy=0;strokeWidth=1;endSize=1;" parent="PvffXtldvGFclzvf1Mkj-34" source="-joh_1QA3JhNHQXmWk5C-69" target="-joh_1QA3JhNHQXmWk5C-67" edge="1">
          <mxGeometry width="50" height="50" relative="1" as="geometry">
            <mxPoint x="560" y="340" as="sourcePoint" />
            <mxPoint x="590" y="370" as="targetPoint" />
          </mxGeometry>
        </mxCell>
        <mxCell id="-joh_1QA3JhNHQXmWk5C-98" value="" style="endArrow=classic;html=1;rounded=0;exitX=1;exitY=0.5;exitDx=0;exitDy=0;entryX=0;entryY=0.5;entryDx=0;entryDy=0;strokeWidth=1;endSize=1;" parent="PvffXtldvGFclzvf1Mkj-34" source="-joh_1QA3JhNHQXmWk5C-70" target="-joh_1QA3JhNHQXmWk5C-66" edge="1">
          <mxGeometry width="50" height="50" relative="1" as="geometry">
            <mxPoint x="570" y="350" as="sourcePoint" />
            <mxPoint x="600" y="380" as="targetPoint" />
          </mxGeometry>
        </mxCell>
        <mxCell id="-joh_1QA3JhNHQXmWk5C-99" value="" style="endArrow=classic;html=1;rounded=0;exitX=1;exitY=0.5;exitDx=0;exitDy=0;entryX=0;entryY=0.5;entryDx=0;entryDy=0;strokeWidth=1;endSize=1;" parent="PvffXtldvGFclzvf1Mkj-34" source="-joh_1QA3JhNHQXmWk5C-70" target="-joh_1QA3JhNHQXmWk5C-67" edge="1">
          <mxGeometry width="50" height="50" relative="1" as="geometry">
            <mxPoint x="580" y="360" as="sourcePoint" />
            <mxPoint x="610" y="390" as="targetPoint" />
          </mxGeometry>
        </mxCell>
        <mxCell id="-joh_1QA3JhNHQXmWk5C-107" value="" style="endArrow=classic;html=1;rounded=0;exitX=1;exitY=0.5;exitDx=0;exitDy=0;entryX=0;entryY=0.5;entryDx=0;entryDy=0;strokeWidth=1;endSize=1;" parent="PvffXtldvGFclzvf1Mkj-34" source="-joh_1QA3JhNHQXmWk5C-104" target="-joh_1QA3JhNHQXmWk5C-68" edge="1">
          <mxGeometry width="50" height="50" relative="1" as="geometry">
            <mxPoint x="540" y="320" as="sourcePoint" />
            <mxPoint x="570" y="350" as="targetPoint" />
          </mxGeometry>
        </mxCell>
        <mxCell id="-joh_1QA3JhNHQXmWk5C-108" value="" style="endArrow=classic;html=1;rounded=0;exitX=1;exitY=0.5;exitDx=0;exitDy=0;entryX=0;entryY=0.5;entryDx=0;entryDy=0;strokeWidth=1;endSize=1;" parent="PvffXtldvGFclzvf1Mkj-34" source="-joh_1QA3JhNHQXmWk5C-104" target="-joh_1QA3JhNHQXmWk5C-67" edge="1">
          <mxGeometry width="50" height="50" relative="1" as="geometry">
            <mxPoint x="550" y="330" as="sourcePoint" />
            <mxPoint x="580" y="360" as="targetPoint" />
          </mxGeometry>
        </mxCell>
        <mxCell id="-joh_1QA3JhNHQXmWk5C-109" value="" style="endArrow=classic;html=1;rounded=0;exitX=1;exitY=0.5;exitDx=0;exitDy=0;entryX=0;entryY=0.5;entryDx=0;entryDy=0;strokeWidth=1;endSize=1;" parent="PvffXtldvGFclzvf1Mkj-34" source="-joh_1QA3JhNHQXmWk5C-104" target="-joh_1QA3JhNHQXmWk5C-66" edge="1">
          <mxGeometry width="50" height="50" relative="1" as="geometry">
            <mxPoint x="560" y="340" as="sourcePoint" />
            <mxPoint x="590" y="370" as="targetPoint" />
          </mxGeometry>
        </mxCell>
        <mxCell id="-joh_1QA3JhNHQXmWk5C-110" value="" style="endArrow=classic;html=1;rounded=0;exitX=1;exitY=0.5;exitDx=0;exitDy=0;entryX=0;entryY=0.5;entryDx=0;entryDy=0;strokeWidth=1;endSize=1;" parent="PvffXtldvGFclzvf1Mkj-34" source="-joh_1QA3JhNHQXmWk5C-105" target="-joh_1QA3JhNHQXmWk5C-63" edge="1">
          <mxGeometry width="50" height="50" relative="1" as="geometry">
            <mxPoint x="570" y="350" as="sourcePoint" />
            <mxPoint x="600" y="380" as="targetPoint" />
          </mxGeometry>
        </mxCell>
        <mxCell id="-joh_1QA3JhNHQXmWk5C-111" value="" style="endArrow=classic;html=1;rounded=0;exitX=1;exitY=0.5;exitDx=0;exitDy=0;entryX=0;entryY=0.5;entryDx=0;entryDy=0;strokeWidth=1;endSize=1;" parent="PvffXtldvGFclzvf1Mkj-34" source="-joh_1QA3JhNHQXmWk5C-68" target="-joh_1QA3JhNHQXmWk5C-63" edge="1">
          <mxGeometry width="50" height="50" relative="1" as="geometry">
            <mxPoint x="580" y="360" as="sourcePoint" />
            <mxPoint x="610" y="390" as="targetPoint" />
          </mxGeometry>
        </mxCell>
        <mxCell id="-joh_1QA3JhNHQXmWk5C-112" value="" style="endArrow=classic;html=1;rounded=0;exitX=1;exitY=0.5;exitDx=0;exitDy=0;entryX=0;entryY=0.5;entryDx=0;entryDy=0;strokeWidth=1;endSize=1;" parent="PvffXtldvGFclzvf1Mkj-34" source="-joh_1QA3JhNHQXmWk5C-67" target="-joh_1QA3JhNHQXmWk5C-63" edge="1">
          <mxGeometry width="50" height="50" relative="1" as="geometry">
            <mxPoint x="590" y="370" as="sourcePoint" />
            <mxPoint x="620" y="400" as="targetPoint" />
          </mxGeometry>
        </mxCell>
        <mxCell id="-joh_1QA3JhNHQXmWk5C-113" value="" style="endArrow=classic;html=1;rounded=0;exitX=1;exitY=0.5;exitDx=0;exitDy=0;entryX=0;entryY=0.5;entryDx=0;entryDy=0;strokeWidth=1;endSize=1;" parent="PvffXtldvGFclzvf1Mkj-34" source="-joh_1QA3JhNHQXmWk5C-66" target="-joh_1QA3JhNHQXmWk5C-63" edge="1">
          <mxGeometry width="50" height="50" relative="1" as="geometry">
            <mxPoint x="600" y="380" as="sourcePoint" />
            <mxPoint x="630" y="410" as="targetPoint" />
          </mxGeometry>
        </mxCell>
        <mxCell id="-joh_1QA3JhNHQXmWk5C-114" value="" style="endArrow=classic;html=1;rounded=0;exitX=1;exitY=0.5;exitDx=0;exitDy=0;entryX=0;entryY=0.5;entryDx=0;entryDy=0;strokeWidth=1;endSize=1;" parent="PvffXtldvGFclzvf1Mkj-34" source="-joh_1QA3JhNHQXmWk5C-105" target="-joh_1QA3JhNHQXmWk5C-62" edge="1">
          <mxGeometry width="50" height="50" relative="1" as="geometry">
            <mxPoint x="610" y="390" as="sourcePoint" />
            <mxPoint x="640" y="420" as="targetPoint" />
          </mxGeometry>
        </mxCell>
        <mxCell id="-joh_1QA3JhNHQXmWk5C-115" value="" style="endArrow=classic;html=1;rounded=0;exitX=1;exitY=0.5;exitDx=0;exitDy=0;entryX=0;entryY=0.5;entryDx=0;entryDy=0;strokeWidth=1;endSize=1;" parent="PvffXtldvGFclzvf1Mkj-34" source="-joh_1QA3JhNHQXmWk5C-105" target="-joh_1QA3JhNHQXmWk5C-61" edge="1">
          <mxGeometry width="50" height="50" relative="1" as="geometry">
            <mxPoint x="610" y="350" as="sourcePoint" />
            <mxPoint x="640" y="380" as="targetPoint" />
          </mxGeometry>
        </mxCell>
        <mxCell id="-joh_1QA3JhNHQXmWk5C-117" value="" style="endArrow=classic;html=1;rounded=0;exitX=1;exitY=0.5;exitDx=0;exitDy=0;entryX=0;entryY=0.5;entryDx=0;entryDy=0;strokeWidth=1;endSize=1;" parent="PvffXtldvGFclzvf1Mkj-34" source="-joh_1QA3JhNHQXmWk5C-68" target="-joh_1QA3JhNHQXmWk5C-62" edge="1">
          <mxGeometry width="50" height="50" relative="1" as="geometry">
            <mxPoint x="580" y="320" as="sourcePoint" />
            <mxPoint x="610" y="350" as="targetPoint" />
          </mxGeometry>
        </mxCell>
        <mxCell id="-joh_1QA3JhNHQXmWk5C-118" value="" style="endArrow=classic;html=1;rounded=0;exitX=1;exitY=0.5;exitDx=0;exitDy=0;entryX=0;entryY=0.5;entryDx=0;entryDy=0;strokeWidth=1;endSize=1;" parent="PvffXtldvGFclzvf1Mkj-34" source="-joh_1QA3JhNHQXmWk5C-68" target="-joh_1QA3JhNHQXmWk5C-61" edge="1">
          <mxGeometry width="50" height="50" relative="1" as="geometry">
            <mxPoint x="590" y="330" as="sourcePoint" />
            <mxPoint x="620" y="360" as="targetPoint" />
          </mxGeometry>
        </mxCell>
        <mxCell id="-joh_1QA3JhNHQXmWk5C-119" value="" style="endArrow=classic;html=1;rounded=0;exitX=1;exitY=0.5;exitDx=0;exitDy=0;entryX=0;entryY=0.5;entryDx=0;entryDy=0;strokeWidth=1;endSize=1;" parent="PvffXtldvGFclzvf1Mkj-34" source="-joh_1QA3JhNHQXmWk5C-67" target="-joh_1QA3JhNHQXmWk5C-62" edge="1">
          <mxGeometry width="50" height="50" relative="1" as="geometry">
            <mxPoint x="600" y="340" as="sourcePoint" />
            <mxPoint x="630" y="370" as="targetPoint" />
          </mxGeometry>
        </mxCell>
        <mxCell id="-joh_1QA3JhNHQXmWk5C-120" value="" style="endArrow=classic;html=1;rounded=0;exitX=1;exitY=0.5;exitDx=0;exitDy=0;entryX=0;entryY=0.5;entryDx=0;entryDy=0;strokeWidth=1;endSize=1;" parent="PvffXtldvGFclzvf1Mkj-34" source="-joh_1QA3JhNHQXmWk5C-67" target="-joh_1QA3JhNHQXmWk5C-61" edge="1">
          <mxGeometry width="50" height="50" relative="1" as="geometry">
            <mxPoint x="610" y="350" as="sourcePoint" />
            <mxPoint x="640" y="380" as="targetPoint" />
          </mxGeometry>
        </mxCell>
        <mxCell id="-joh_1QA3JhNHQXmWk5C-121" value="" style="endArrow=classic;html=1;rounded=0;exitX=1;exitY=0.5;exitDx=0;exitDy=0;entryX=0;entryY=0.5;entryDx=0;entryDy=0;strokeWidth=1;endSize=1;" parent="PvffXtldvGFclzvf1Mkj-34" source="-joh_1QA3JhNHQXmWk5C-66" target="-joh_1QA3JhNHQXmWk5C-61" edge="1">
          <mxGeometry width="50" height="50" relative="1" as="geometry">
            <mxPoint x="620" y="360" as="sourcePoint" />
            <mxPoint x="650" y="390" as="targetPoint" />
          </mxGeometry>
        </mxCell>
        <mxCell id="-joh_1QA3JhNHQXmWk5C-122" value="" style="endArrow=classic;html=1;rounded=0;exitX=1;exitY=0.5;exitDx=0;exitDy=0;entryX=0;entryY=0.5;entryDx=0;entryDy=0;strokeWidth=1;endSize=1;" parent="PvffXtldvGFclzvf1Mkj-34" source="-joh_1QA3JhNHQXmWk5C-106" target="-joh_1QA3JhNHQXmWk5C-64" edge="1">
          <mxGeometry width="50" height="50" relative="1" as="geometry">
            <mxPoint x="581" y="376" as="sourcePoint" />
            <mxPoint x="610" y="309" as="targetPoint" />
          </mxGeometry>
        </mxCell>
        <mxCell id="-joh_1QA3JhNHQXmWk5C-123" value="" style="endArrow=classic;html=1;rounded=0;exitX=1;exitY=0.5;exitDx=0;exitDy=0;entryX=0;entryY=0.5;entryDx=0;entryDy=0;strokeWidth=1;endSize=1;" parent="PvffXtldvGFclzvf1Mkj-34" source="-joh_1QA3JhNHQXmWk5C-63" target="-joh_1QA3JhNHQXmWk5C-64" edge="1">
          <mxGeometry width="50" height="50" relative="1" as="geometry">
            <mxPoint x="640" y="367" as="sourcePoint" />
            <mxPoint x="669" y="300" as="targetPoint" />
          </mxGeometry>
        </mxCell>
        <mxCell id="-joh_1QA3JhNHQXmWk5C-124" value="" style="endArrow=classic;html=1;rounded=0;exitX=1;exitY=0.5;exitDx=0;exitDy=0;entryX=0;entryY=0.5;entryDx=0;entryDy=0;strokeWidth=1;endSize=1;" parent="PvffXtldvGFclzvf1Mkj-34" source="-joh_1QA3JhNHQXmWk5C-62" target="-joh_1QA3JhNHQXmWk5C-64" edge="1">
          <mxGeometry width="50" height="50" relative="1" as="geometry">
            <mxPoint x="621" y="350" as="sourcePoint" />
            <mxPoint x="650" y="341" as="targetPoint" />
          </mxGeometry>
        </mxCell>
        <mxCell id="-joh_1QA3JhNHQXmWk5C-125" value="" style="endArrow=classic;html=1;rounded=0;exitX=1;exitY=0.5;exitDx=0;exitDy=0;entryX=0;entryY=0.5;entryDx=0;entryDy=0;strokeWidth=1;endSize=1;" parent="PvffXtldvGFclzvf1Mkj-34" source="-joh_1QA3JhNHQXmWk5C-61" target="-joh_1QA3JhNHQXmWk5C-64" edge="1">
          <mxGeometry width="50" height="50" relative="1" as="geometry">
            <mxPoint x="631" y="360" as="sourcePoint" />
            <mxPoint x="660" y="351" as="targetPoint" />
          </mxGeometry>
        </mxCell>
        <mxCell id="-joh_1QA3JhNHQXmWk5C-126" value="" style="endArrow=classic;html=1;rounded=0;exitX=1;exitY=0.5;exitDx=0;exitDy=0;entryX=0;entryY=0.5;entryDx=0;entryDy=0;strokeWidth=1;endSize=1;" parent="PvffXtldvGFclzvf1Mkj-34" source="-joh_1QA3JhNHQXmWk5C-106" target="-joh_1QA3JhNHQXmWk5C-65" edge="1">
          <mxGeometry width="50" height="50" relative="1" as="geometry">
            <mxPoint x="641" y="370" as="sourcePoint" />
            <mxPoint x="670" y="361" as="targetPoint" />
          </mxGeometry>
        </mxCell>
        <mxCell id="-joh_1QA3JhNHQXmWk5C-127" value="" style="endArrow=classic;html=1;rounded=0;exitX=1;exitY=0.5;exitDx=0;exitDy=0;entryX=0;entryY=0.5;entryDx=0;entryDy=0;strokeWidth=1;endSize=1;" parent="PvffXtldvGFclzvf1Mkj-34" source="-joh_1QA3JhNHQXmWk5C-63" target="-joh_1QA3JhNHQXmWk5C-65" edge="1">
          <mxGeometry width="50" height="50" relative="1" as="geometry">
            <mxPoint x="651" y="380" as="sourcePoint" />
            <mxPoint x="680" y="371" as="targetPoint" />
          </mxGeometry>
        </mxCell>
        <mxCell id="-joh_1QA3JhNHQXmWk5C-128" value="" style="endArrow=classic;html=1;rounded=0;exitX=1;exitY=0.5;exitDx=0;exitDy=0;entryX=0;entryY=0.5;entryDx=0;entryDy=0;strokeWidth=1;endSize=1;" parent="PvffXtldvGFclzvf1Mkj-34" source="-joh_1QA3JhNHQXmWk5C-62" target="-joh_1QA3JhNHQXmWk5C-65" edge="1">
          <mxGeometry width="50" height="50" relative="1" as="geometry">
            <mxPoint x="650" y="339" as="sourcePoint" />
            <mxPoint x="679" y="330" as="targetPoint" />
          </mxGeometry>
        </mxCell>
        <mxCell id="-joh_1QA3JhNHQXmWk5C-129" value="" style="endArrow=classic;html=1;rounded=0;exitX=1;exitY=0.5;exitDx=0;exitDy=0;entryX=0;entryY=0.5;entryDx=0;entryDy=0;strokeWidth=1;endSize=1;" parent="PvffXtldvGFclzvf1Mkj-34" source="-joh_1QA3JhNHQXmWk5C-61" target="-joh_1QA3JhNHQXmWk5C-65" edge="1">
          <mxGeometry width="50" height="50" relative="1" as="geometry">
            <mxPoint x="671" y="400" as="sourcePoint" />
            <mxPoint x="700" y="391" as="targetPoint" />
          </mxGeometry>
        </mxCell>
        <mxCell id="-joh_1QA3JhNHQXmWk5C-197" value="" style="endArrow=classic;html=1;rounded=0;entryX=0;entryY=0.5;entryDx=0;entryDy=0;strokeWidth=1;endSize=1;exitX=1;exitY=0.5;exitDx=0;exitDy=0;" parent="PvffXtldvGFclzvf1Mkj-34" source="-joh_1QA3JhNHQXmWk5C-66" target="-joh_1QA3JhNHQXmWk5C-62" edge="1">
          <mxGeometry width="50" height="50" relative="1" as="geometry">
            <mxPoint x="600" y="290" as="sourcePoint" />
            <mxPoint x="639" y="350" as="targetPoint" />
          </mxGeometry>
        </mxCell>
        <object label="DNN weights" id="ntlW8NFhvoEF-g6CEwiz-56">
          <mxCell style="locked=1;" parent="0" />
        </object>
        <mxCell id="-joh_1QA3JhNHQXmWk5C-61" value="" style="ellipse;whiteSpace=wrap;html=1;aspect=fixed;fillColor=#FF8D8D;" parent="ntlW8NFhvoEF-g6CEwiz-56" vertex="1">
          <mxGeometry x="629" y="273.99999999999994" width="11" height="11" as="geometry" />
        </mxCell>
        <mxCell id="-joh_1QA3JhNHQXmWk5C-62" value="" style="ellipse;whiteSpace=wrap;html=1;aspect=fixed;fillColor=#FF8D8D;" parent="ntlW8NFhvoEF-g6CEwiz-56" vertex="1">
          <mxGeometry x="629" y="304.50999999999993" width="11" height="11" as="geometry" />
        </mxCell>
        <mxCell id="-joh_1QA3JhNHQXmWk5C-63" value="" style="ellipse;whiteSpace=wrap;html=1;aspect=fixed;fillColor=#FF8D8D;" parent="ntlW8NFhvoEF-g6CEwiz-56" vertex="1">
          <mxGeometry x="629" y="333.99999999999994" width="11" height="11" as="geometry" />
        </mxCell>
        <mxCell id="-joh_1QA3JhNHQXmWk5C-64" value="" style="ellipse;whiteSpace=wrap;html=1;aspect=fixed;fillColor=#7EA6E0;" parent="ntlW8NFhvoEF-g6CEwiz-56" vertex="1">
          <mxGeometry x="689" y="315.50999999999993" width="11" height="11" as="geometry" />
        </mxCell>
        <mxCell id="-joh_1QA3JhNHQXmWk5C-65" value="" style="ellipse;whiteSpace=wrap;html=1;aspect=fixed;fillColor=#7EA6E0;" parent="ntlW8NFhvoEF-g6CEwiz-56" vertex="1">
          <mxGeometry x="689" y="294.50999999999993" width="11" height="11" as="geometry" />
        </mxCell>
        <mxCell id="-joh_1QA3JhNHQXmWk5C-66" value="" style="ellipse;whiteSpace=wrap;html=1;aspect=fixed;fillColor=#FF8D8D;" parent="ntlW8NFhvoEF-g6CEwiz-56" vertex="1">
          <mxGeometry x="560" y="273.99999999999994" width="11" height="11" as="geometry" />
        </mxCell>
        <mxCell id="-joh_1QA3JhNHQXmWk5C-67" value="" style="ellipse;whiteSpace=wrap;html=1;aspect=fixed;fillColor=#FF8D8D;" parent="ntlW8NFhvoEF-g6CEwiz-56" vertex="1">
          <mxGeometry x="560" y="304.50999999999993" width="11" height="11" as="geometry" />
        </mxCell>
        <mxCell id="-joh_1QA3JhNHQXmWk5C-68" value="" style="ellipse;whiteSpace=wrap;html=1;aspect=fixed;fillColor=#FF8D8D;" parent="ntlW8NFhvoEF-g6CEwiz-56" vertex="1">
          <mxGeometry x="560" y="333.99999999999994" width="11" height="11" as="geometry" />
        </mxCell>
        <mxCell id="-joh_1QA3JhNHQXmWk5C-69" value="" style="ellipse;whiteSpace=wrap;html=1;aspect=fixed;fillColor=#7EA6E0;" parent="ntlW8NFhvoEF-g6CEwiz-56" vertex="1">
          <mxGeometry x="501" y="314.50999999999993" width="11" height="11" as="geometry" />
        </mxCell>
        <mxCell id="-joh_1QA3JhNHQXmWk5C-70" value="" style="ellipse;whiteSpace=wrap;html=1;aspect=fixed;fillColor=#7EA6E0;" parent="ntlW8NFhvoEF-g6CEwiz-56" vertex="1">
          <mxGeometry x="501" y="295.50999999999993" width="11" height="11" as="geometry" />
        </mxCell>
        <mxCell id="-joh_1QA3JhNHQXmWk5C-104" value="$$1$$" style="ellipse;whiteSpace=wrap;html=1;aspect=fixed;fontSize=9;fillColor=#FF8000;" parent="ntlW8NFhvoEF-g6CEwiz-56" vertex="1">
          <mxGeometry x="526" y="350.99999999999994" width="11" height="11" as="geometry" />
        </mxCell>
        <mxCell id="-joh_1QA3JhNHQXmWk5C-105" value="&lt;span style=&quot;font-size: 9px;&quot;&gt;$$1$$&lt;/span&gt;" style="ellipse;whiteSpace=wrap;html=1;aspect=fixed;fillColor=#FF8000;" parent="ntlW8NFhvoEF-g6CEwiz-56" vertex="1">
          <mxGeometry x="594" y="350.99999999999994" width="11" height="11" as="geometry" />
        </mxCell>
        <mxCell id="-joh_1QA3JhNHQXmWk5C-106" value="&lt;span style=&quot;font-size: 9px;&quot;&gt;$$1$$&lt;/span&gt;" style="ellipse;whiteSpace=wrap;html=1;aspect=fixed;fillColor=#FF8000;" parent="ntlW8NFhvoEF-g6CEwiz-56" vertex="1">
          <mxGeometry x="654" y="350.99999999999994" width="11" height="11" as="geometry" />
        </mxCell>
        <object label="DNN Greec" id="ntlW8NFhvoEF-g6CEwiz-81">
          <mxCell style="locked=1;" parent="0" />
        </object>
        <mxCell id="-joh_1QA3JhNHQXmWk5C-134" value="$$\boldsymbol{q}_n$$" style="text;html=1;align=center;verticalAlign=middle;resizable=0;points=[];autosize=1;strokeColor=none;fillColor=none;fontFamily=Times New Roman;" parent="ntlW8NFhvoEF-g6CEwiz-81" vertex="1">
          <mxGeometry x="437" y="336" width="140" height="30" as="geometry" />
        </mxCell>
        <mxCell id="-joh_1QA3JhNHQXmWk5C-135" value="$$\boldsymbol{W}_0$$" style="text;html=1;align=center;verticalAlign=middle;resizable=0;points=[];autosize=1;strokeColor=none;fillColor=none;fontFamily=Times New Roman;" parent="ntlW8NFhvoEF-g6CEwiz-81" vertex="1">
          <mxGeometry x="461" y="262" width="140" height="30" as="geometry" />
        </mxCell>
        <mxCell id="-joh_1QA3JhNHQXmWk5C-136" value="$$\boldsymbol{W}_1$$" style="text;html=1;align=center;verticalAlign=middle;resizable=0;points=[];autosize=1;strokeColor=none;fillColor=none;fontFamily=Times New Roman;" parent="ntlW8NFhvoEF-g6CEwiz-81" vertex="1">
          <mxGeometry x="531" y="256" width="140" height="30" as="geometry" />
        </mxCell>
        <mxCell id="-joh_1QA3JhNHQXmWk5C-137" value="$$\boldsymbol{W}_2$$" style="text;html=1;align=center;verticalAlign=middle;resizable=0;points=[];autosize=1;strokeColor=none;fillColor=none;fontFamily=Times New Roman;" parent="ntlW8NFhvoEF-g6CEwiz-81" vertex="1">
          <mxGeometry x="598" y="262" width="140" height="30" as="geometry" />
        </mxCell>
        <mxCell id="-joh_1QA3JhNHQXmWk5C-138" value="$$\boldsymbol{\Phi}_0$$" style="text;html=1;align=center;verticalAlign=middle;resizable=0;points=[];autosize=1;strokeColor=none;fillColor=none;fontFamily=Times New Roman;" parent="ntlW8NFhvoEF-g6CEwiz-81" vertex="1">
          <mxGeometry x="492" y="359" width="150" height="30" as="geometry" />
        </mxCell>
        <mxCell id="-joh_1QA3JhNHQXmWk5C-139" value="$$\boldsymbol{\Phi}_1$$" style="text;html=1;align=center;verticalAlign=middle;resizable=0;points=[];autosize=1;strokeColor=none;fillColor=none;fontFamily=Times New Roman;" parent="ntlW8NFhvoEF-g6CEwiz-81" vertex="1">
          <mxGeometry x="561" y="358" width="150" height="30" as="geometry" />
        </mxCell>
        <mxCell id="-joh_1QA3JhNHQXmWk5C-140" value="$$\boldsymbol{\Phi}_2$$" style="text;html=1;align=center;verticalAlign=middle;resizable=0;points=[];autosize=1;strokeColor=none;fillColor=none;fontFamily=Times New Roman;" parent="ntlW8NFhvoEF-g6CEwiz-81" vertex="1">
          <mxGeometry x="620" y="340" width="150" height="30" as="geometry" />
        </mxCell>
        <object label="Names" id="1">
          <mxCell style="locked=1;" parent="0" />
        </object>
        <mxCell id="-joh_1QA3JhNHQXmWk5C-149" value="&lt;font&gt;Output Layer&lt;/font&gt;" style="text;html=1;align=center;verticalAlign=middle;resizable=0;points=[];autosize=1;strokeColor=none;fillColor=none;fontFamily=Times New Roman;fontSize=9;" parent="1" vertex="1">
          <mxGeometry x="661" y="242" width="70" height="20" as="geometry" />
        </mxCell>
        <mxCell id="-joh_1QA3JhNHQXmWk5C-150" value="&lt;font&gt;Hidden Layer 1&lt;/font&gt;" style="text;html=1;align=center;verticalAlign=middle;resizable=0;points=[];autosize=1;strokeColor=none;fillColor=none;fontFamily=Times New Roman;fontSize=9;" parent="1" vertex="1">
          <mxGeometry x="528" y="242" width="80" height="20" as="geometry" />
        </mxCell>
        <mxCell id="-joh_1QA3JhNHQXmWk5C-151" value="&lt;font&gt;Hidden Layer 2&lt;/font&gt;" style="text;html=1;align=center;verticalAlign=middle;resizable=0;points=[];autosize=1;strokeColor=none;fillColor=none;fontFamily=Times New Roman;fontSize=9;" parent="1" vertex="1">
          <mxGeometry x="595" y="242" width="80" height="20" as="geometry" />
        </mxCell>
        <mxCell id="-joh_1QA3JhNHQXmWk5C-153" value="&lt;font&gt;Input Layer&lt;/font&gt;" style="text;html=1;align=center;verticalAlign=middle;resizable=0;points=[];autosize=1;strokeColor=none;fillColor=none;fontFamily=Times New Roman;fontSize=9;" parent="1" vertex="1">
          <mxGeometry x="471" y="242" width="70" height="20" as="geometry" />
        </mxCell>
      </root>
    </mxGraphModel>
  </diagram>
</mxfile>
